<svg xmlns="http://www.w3.org/2000/svg" viewBox="0 0 100 100" width="100%" height="100%">
  <defs>
    <linearGradient id="imRed" x1="0%" y1="0%" x2="100%" y2="100%">
      <stop offset="0%" stop-color="#DC2626"/>
      <stop offset="60%" stop-color="#B91C1C"/>
      <stop offset="100%" stop-color="#7F1D1D"/>
    </linearGradient>
    <linearGradient id="imGold" x1="0%" y1="0%" x2="0%" y2="100%">
      <stop offset="0%" stop-color="#FCD34D"/>
      <stop offset="50%" stop-color="#F59E0B"/>
      <stop offset="100%" stop-color="#D97706"/>
    </linearGradient>
    <linearGradient id="arcGlow" x1="0%" y1="0%" x2="100%" y2="0%">
      <stop offset="0%" stop-color="#67E8F9"/>
      <stop offset="50%" stop-color="#FFFFFF"/>
      <stop offset="100%" stop-color="#67E8F9"/>
    </linearGradient>
  </defs>
  <circle cx="50" cy="50" r="48" fill="url(#imRed)" stroke="#991B1B" stroke-width="2"/>
  <path d="M30,22 L70,22 L76,46 L68,76 L50,82 L32,76 L24,46 Z" fill="url(#imGold)" stroke="#B45309" stroke-width="1.5"/>
  <path d="M36,28 L64,28 L60,36 L40,36 Z" fill="#DC2626" opacity="0.85"/>
  <line x1="50" y1="22" x2="50" y2="36" stroke="#991B1B" stroke-width="1.2"/>
  <path d="M38,68 L50,73 L62,68 L60,74 L50,78 L40,74 Z" fill="#B45309" opacity="0.6"/>
  <polygon points="34,48 46,48 44,52 36,52" fill="url(#arcGlow)"/>
  <polygon points="66,48 54,48 56,52 64,52" fill="url(#arcGlow)"/>
  <rect x="42" y="64" width="16" height="2" rx="1" fill="#78350F"/>
  <circle cx="50" cy="50" r="48" fill="none" stroke="#FCA5A5" stroke-width="1.5" opacity="0.4"/>
</svg>